<svg width="64" height="72" viewBox="0 0 64 72" fill="none" xmlns="http://www.w3.org/2000/svg">
<g filter="url(#filter0_d)">
<path d="M29.6562 62.3281C30.7109 63.9688 33.1719 63.9688 34.2266 62.3281C51.3359 37.7188 54.5 35.1406 54.5 26C54.5 13.5781 44.4219 3.5 32 3.5C19.4609 3.5 9.5 13.5781 9.5 26C9.5 35.1406 12.5469 37.7188 29.6562 62.3281Z" fill="#F07723"/>
<path d="M29.6562 62.3281L30.918 61.517L30.9033 61.4942L30.8878 61.4719L29.6562 62.3281ZM34.2266 62.3281L32.995 61.4719L32.9795 61.4942L32.9648 61.517L34.2266 62.3281ZM28.3945 63.1393C30.0396 65.6984 33.8432 65.6984 35.4883 63.1393L32.9648 61.517C32.5006 62.2391 31.3823 62.2391 30.918 61.517L28.3945 63.1393ZM35.4582 63.1844C43.9634 50.9508 49.1012 44.0559 52.0642 39.1373C53.5646 36.6466 54.5633 34.5763 55.177 32.4962C55.7938 30.4053 56 28.378 56 26H53C53 28.1923 52.8107 29.915 52.2996 31.6473C51.7853 33.3905 50.9237 35.2167 49.4944 37.5893C46.598 42.3972 41.5991 49.0961 32.995 61.4719L35.4582 63.1844ZM56 26C56 12.7497 45.2503 2 32 2V5C43.5934 5 53 14.4066 53 26H56ZM32 2C18.6274 2 8 12.7548 8 26H11C11 14.4015 20.2945 5 32 5V2ZM8 26C8 28.374 8.19807 30.3992 8.80248 32.4886C9.40414 34.5685 10.3873 36.6391 11.8738 39.1316C14.8098 44.0546 19.9173 50.9478 28.4247 63.1844L30.8878 61.4719C22.2858 49.0991 17.3152 42.3986 14.4504 37.595C13.0365 35.2242 12.1886 33.3983 11.6843 31.655C11.1828 29.9211 11 28.1963 11 26H8Z" fill="white"/>
</g>
<path d="M45.7812 19.5781L42.7344 14.7031C42.4531 14.2812 41.9844 14 41.4688 14H22.5312C22.0156 14 21.5 14.2812 21.2188 14.7031L18.2188 19.5781C16.625 22.1094 18.0312 25.5781 20.9375 25.9531C21.1719 26 21.3594 26 21.5938 26C23 26 24.2188 25.3906 25.0625 24.4531C25.9062 25.3906 27.125 26 28.5312 26C29.8906 26 31.1094 25.3906 31.9531 24.4531C32.7969 25.3906 34.0625 26 35.4219 26C36.8281 26 38.0469 25.3906 38.8906 24.4531C39.7344 25.3906 40.9531 26 42.3594 26C42.5938 26 42.7812 26 43.0156 25.9531C45.9219 25.5781 47.3281 22.1094 45.7812 19.5781ZM42.3594 27.5C41.8906 27.5 41.4219 27.4531 41 27.3594V32H23V27.3594C22.5312 27.4531 22.0625 27.5 21.5938 27.5C21.3125 27.5 21.0312 27.5 20.75 27.4531C20.4688 27.4062 20.2344 27.3594 20 27.3125V36.5C20 37.3438 20.6562 38 21.5 38H42.5C43.2969 38 44 37.3438 44 36.5V27.3125C43.7188 27.3594 43.4844 27.4531 43.2031 27.4531C42.9219 27.5 42.6406 27.5 42.3594 27.5Z" fill="white"/>
<defs>
<filter id="filter0_d" x="-4" y="-1" width="72" height="72.0586" filterUnits="userSpaceOnUse" color-interpolation-filters="sRGB">
<feFlood flood-opacity="0" result="BackgroundImageFix"/>
<feColorMatrix in="SourceAlpha" type="matrix" values="0 0 0 0 0 0 0 0 0 0 0 0 0 0 0 0 0 0 127 0"/>
<feOffset dy="2"/>
<feGaussianBlur stdDeviation="2"/>
<feColorMatrix type="matrix" values="0 0 0 0 1 0 0 0 0 0.560784 0 0 0 0 0.196078 0 0 0 0.4 0"/>
<feBlend mode="normal" in2="BackgroundImageFix" result="effect1_dropShadow"/>
<feBlend mode="normal" in="SourceGraphic" in2="effect1_dropShadow" result="shape"/>
</filter>
</defs>
</svg>
